<?xml version="1.0" standalone="no"?>
<!DOCTYPE svg PUBLIC "-//W3C//DTD SVG 20010904//EN"
 "http://www.w3.org/TR/2001/REC-SVG-20010904/DTD/svg10.dtd">
<svg version="1.0" xmlns="http://www.w3.org/2000/svg"
 width="512.000000pt" height="512.000000pt" viewBox="0 0 512.000000 512.000000"
 preserveAspectRatio="xMidYMid meet">
<metadata>
Created by potrace 1.11, written by Peter Selinger 2001-2013
</metadata>
<g transform="translate(0.000000,512.000000) scale(0.100000,-0.100000)"
fill="#000000" stroke="none">
<path d="M0 4920 l0 -200 140 0 140 0 0 -70 0 -70 -140 0 -140 0 0 -2015 0
-2015 140 0 140 0 0 -75 0 -75 -140 0 -140 0 0 -200 0 -200 215 0 215 0 0 120
0 120 80 0 80 0 0 -120 0 -120 1970 0 1970 0 0 120 0 120 80 0 80 0 0 -120 0
-120 215 0 215 0 0 200 0 200 -135 0 -135 0 0 75 0 75 135 0 135 0 0 2015 0
2015 -140 0 -140 0 0 70 0 70 140 0 140 0 0 200 0 200 -215 0 -215 0 0 -115 0
-115 -80 0 -80 0 0 115 0 115 -1970 0 -1970 0 0 -115 0 -115 -80 0 -80 0 0
115 0 115 -215 0 -215 0 0 -200z m5000 45 l0 -75 -80 0 -80 0 0 75 0 75 80 0
80 0 0 -75z m-4720 -5 l0 -70 -80 0 -80 0 0 70 0 70 80 0 80 0 0 -70z m4100 0
l0 -70 -374 0 -374 0 -7 -29 c-9 -43 14 -109 46 -132 16 -11 54 -25 86 -31 32
-6 83 -21 114 -34 31 -13 61 -24 66 -24 30 0 253 -131 308 -181 26 -23 104
-59 131 -59 18 0 22 -8 28 -50 4 -33 17 -63 39 -92 74 -97 197 -315 197 -350
0 -9 16 -62 36 -118 41 -112 49 -120 130 -120 l44 0 0 360 0 360 75 0 75 0 0
-1830 0 -1830 -75 0 -75 0 0 359 0 359 -26 6 c-26 7 -88 -8 -111 -26 -6 -5
-26 -55 -43 -111 -18 -56 -46 -133 -63 -172 -28 -65 -122 -234 -137 -245 -21
-16 -72 -99 -80 -132 -7 -24 -17 -38 -27 -38 -9 0 -80 -42 -157 -93 -78 -51
-166 -105 -196 -119 -110 -53 -199 -88 -226 -88 -105 0 -190 -91 -141 -152 26
-33 75 -38 413 -38 l334 0 0 -75 0 -75 -1825 0 -1825 0 0 75 0 75 328 0 c356
0 397 5 413 47 26 70 -44 143 -137 143 -46 0 -273 100 -358 159 -23 15 -78 53
-124 84 -45 31 -91 57 -101 57 -13 0 -21 10 -25 34 -4 19 -15 45 -25 57 -101
132 -220 348 -235 429 -3 19 -23 69 -44 110 -31 63 -42 76 -72 86 -21 7 -44 8
-58 3 l-22 -8 0 -356 0 -355 -75 0 -75 0 0 1830 0 1830 75 0 75 0 0 -365 0
-366 68 3 67 3 17 65 c9 36 23 83 32 105 8 22 15 48 16 58 0 24 89 202 129
260 17 25 31 49 31 52 0 4 11 20 25 36 26 32 45 86 45 132 0 23 4 27 28 27 40
1 93 28 217 111 146 98 284 163 379 180 116 20 166 59 166 129 0 75 30 70
-386 70 l-374 0 0 70 0 70 1820 0 1820 0 0 -70z m-3790 -305 l0 -75 -80 0 -80
0 0 75 0 75 80 0 80 0 0 -75z m3790 0 c0 -74 0 -75 -26 -75 -17 0 -60 25 -120
71 -52 39 -94 72 -94 75 0 2 54 4 120 4 l120 0 0 -75z m310 0 l0 -75 -80 0
-80 0 0 75 0 75 80 0 80 0 0 -75z m-3700 60 c0 -14 -201 -135 -224 -135 -26 0
-26 1 -26 70 l0 70 125 0 c69 0 125 -2 125 -5z m-390 -335 c0 -5 -4 -10 -10
-10 -11 0 -81 -93 -127 -169 l-33 -55 0 122 0 122 85 0 c50 0 85 -4 85 -10z
m4100 -112 c0 -120 0 -122 -18 -97 -9 14 -43 65 -75 112 -32 48 -62 87 -68 87
-5 0 -9 5 -9 10 0 6 35 10 85 10 l85 0 0 -122z m-4181 -3426 c39 -57 71 -105
71 -108 0 -2 -36 -4 -80 -4 l-80 0 1 128 c0 76 4 119 8 107 5 -11 41 -67 80
-123z m4171 8 l0 -120 -80 0 c-44 0 -80 2 -80 4 0 2 32 46 70 98 39 51 73 103
76 116 4 12 8 22 10 22 2 0 4 -54 4 -120z m-4100 -375 l0 -75 -80 0 -80 0 0
75 0 75 80 0 80 0 0 -75z m215 66 c7 -13 134 -101 144 -101 4 0 16 -9 26 -20
18 -20 17 -20 -108 -20 l-127 0 0 75 0 75 29 0 c17 0 32 -4 36 -9z m3585 -66
l0 -75 -126 0 c-69 0 -124 4 -122 9 8 21 195 140 221 140 l27 1 0 -75z m300 0
l0 -75 -80 0 -80 0 0 75 0 75 80 0 80 0 0 -75z m-4410 -310 l0 -75 -80 0 -80
0 0 75 0 75 80 0 80 0 0 -75z m4720 0 l0 -75 -75 0 -75 0 0 75 0 75 75 0 75 0
0 -75z"/>
<path d="M4708 3394 c-2 -1 -30 -5 -62 -8 -32 -3 -77 -8 -100 -10 -92 -11
-246 -20 -321 -19 -204 3 -574 18 -682 29 l-61 6 -46 -46 c-46 -46 -71 -90
-61 -106 3 -5 38 -6 78 -2 67 6 340 7 435 1 30 -2 42 -7 43 -18 1 -9 2 -29 4
-46 31 -351 36 -1014 9 -1205 -9 -66 -27 -141 -35 -146 -14 -8 2 -34 21 -34
28 0 197 66 215 84 9 9 14 24 11 33 -7 23 -14 127 -22 363 -16 431 -4 865 25
943 l10 25 228 -2 c150 -2 238 -7 258 -15 26 -11 31 -10 47 11 46 58 98 142
95 152 -3 9 -81 18 -89 10z"/>
<path d="M457 3331 c-77 -40 -127 -80 -138 -109 -8 -19 -4 -31 20 -61 33 -41
138 -250 243 -481 76 -167 195 -407 277 -560 62 -114 102 -197 128 -265 l19
-50 50 2 c107 5 140 30 176 133 9 25 72 209 141 410 215 627 285 823 321 895
42 84 36 100 -31 91 -52 -7 -182 -65 -203 -91 -8 -10 -16 -39 -16 -64 -2 -78
-12 -129 -68 -346 -111 -435 -149 -561 -215 -715 -48 -113 -58 -112 -123 10
-60 113 -194 380 -233 465 -15 33 -43 94 -62 135 -130 278 -183 416 -198 515
-14 86 -17 100 -24 108 -4 4 -33 -6 -64 -22z"/>
<path d="M2555 3352 c-102 -12 -282 -83 -378 -151 -86 -61 -163 -147 -215
-241 -32 -57 -85 -190 -76 -190 2 0 1 -8 -5 -17 -22 -42 -32 -271 -17 -386 39
-307 245 -514 559 -563 23 -3 83 -6 132 -5 117 2 111 1 178 16 31 7 61 14 65
14 82 13 207 77 266 138 173 174 301 489 299 738 -2 216 -74 370 -227 485
-152 114 -400 184 -581 162z m150 -167 c86 -15 228 -84 312 -151 200 -161 254
-315 188 -539 -43 -149 -106 -269 -187 -356 -44 -47 -197 -129 -273 -145 -97
-21 -266 -12 -347 19 -158 60 -269 159 -336 297 -22 47 -43 103 -47 125 -50
308 88 615 322 716 95 41 245 55 368 34z"/>
<path d="M2549 2641 c-27 -22 -32 -89 -8 -113 55 -55 128 -7 120 80 -2 21 -40
52 -65 52 -13 0 -34 -8 -47 -19z"/>
</g>
</svg>
