<?xml version="1.0" standalone="no"?>
<!DOCTYPE svg PUBLIC "-//W3C//DTD SVG 20010904//EN"
 "http://www.w3.org/TR/2001/REC-SVG-20010904/DTD/svg10.dtd">
<svg version="1.0" xmlns="http://www.w3.org/2000/svg"
 width="512.000000pt" height="512.000000pt" viewBox="0 0 512.000000 512.000000"
 preserveAspectRatio="xMidYMid meet">
<metadata>
Created by potrace 1.11, written by Peter Selinger 2001-2013
</metadata>
<g transform="translate(0.000000,512.000000) scale(0.100000,-0.100000)"
fill="#000000" stroke="none">
<path d="M430 5005 l0 -115 80 0 80 0 0 115 0 115 -80 0 -80 0 0 -115z"/>
<path d="M4530 5005 l0 -115 80 0 80 0 0 115 0 115 -80 0 -80 0 0 -115z"/>
<path d="M4840 4965 l0 -75 80 0 80 0 0 75 0 75 -80 0 -80 0 0 -75z"/>
<path d="M120 4960 l0 -70 80 0 80 0 0 70 0 70 -80 0 -80 0 0 -70z"/>
<path d="M740 4960 l0 -70 380 0 380 0 -1 -67 c0 -65 -2 -69 -34 -96 -28 -23
-48 -30 -110 -36 -58 -5 -79 -12 -95 -29 -14 -15 -32 -22 -59 -22 -27 0 -44
-7 -61 -25 -14 -15 -35 -25 -52 -25 -18 0 -33 -8 -44 -25 -9 -14 -25 -25 -36
-25 -10 0 -30 -11 -44 -25 -14 -14 -31 -25 -39 -25 -8 0 -22 -11 -31 -25 -9
-14 -22 -25 -29 -25 -7 0 -24 -9 -38 -20 -17 -13 -40 -20 -71 -20 l-46 0 0
-60 c0 -33 -4 -60 -10 -60 -5 0 -12 -11 -16 -24 -3 -13 -14 -26 -25 -29 -11
-3 -19 -14 -19 -26 0 -11 -13 -36 -30 -54 -16 -19 -30 -40 -30 -47 0 -7 -11
-25 -25 -42 -14 -16 -25 -41 -25 -55 0 -14 -11 -38 -25 -55 -18 -21 -25 -41
-25 -72 0 -29 -7 -52 -21 -70 -14 -17 -23 -47 -26 -86 l-6 -60 -73 0 -74 0 0
365 0 365 -75 0 -75 0 0 -1830 0 -1830 75 0 75 0 0 365 0 365 48 0 c40 0 53
-5 75 -28 15 -15 27 -35 27 -44 0 -8 11 -36 25 -62 14 -26 25 -62 25 -80 0
-19 11 -49 25 -70 14 -20 25 -44 25 -52 0 -21 29 -74 40 -74 6 0 10 -10 10
-23 0 -13 13 -36 30 -52 16 -16 30 -36 30 -45 0 -9 11 -26 25 -38 14 -12 25
-29 25 -37 0 -8 7 -15 15 -15 20 0 35 -32 35 -74 0 -34 2 -36 35 -36 19 0 35
-5 35 -11 0 -5 16 -17 35 -24 19 -8 39 -24 45 -35 6 -11 17 -20 25 -20 9 0 25
-11 36 -25 12 -13 35 -27 50 -30 16 -4 34 -15 39 -25 5 -10 24 -21 42 -25 18
-4 43 -16 55 -27 11 -11 41 -22 65 -25 23 -3 48 -11 54 -19 17 -21 61 -34 113
-34 38 0 56 -6 89 -32 38 -29 42 -37 42 -75 0 -30 -6 -49 -20 -63 -19 -19 -33
-20 -380 -20 l-360 0 0 -75 0 -75 1825 0 1825 0 0 75 0 75 -364 0 -365 0 -20
26 c-13 16 -21 41 -21 63 0 30 7 41 38 66 31 25 49 31 110 36 53 4 78 11 95
26 12 11 40 23 61 26 21 4 48 15 60 26 12 10 36 22 54 26 18 4 38 15 45 26 6
10 20 19 29 19 10 0 32 14 50 30 17 16 36 30 43 30 6 0 21 11 33 25 12 14 28
25 35 25 8 0 22 9 32 20 10 11 30 20 45 20 31 0 40 15 40 65 0 25 5 35 20 40
11 3 23 17 26 30 3 13 14 27 23 30 9 3 22 20 29 39 7 18 21 41 32 51 11 10 20
25 20 33 0 8 11 27 25 44 14 16 25 40 25 52 0 12 11 37 24 54 14 19 26 53 29
83 4 29 13 59 22 69 8 9 15 32 15 50 0 23 9 43 27 62 23 24 34 28 85 28 l58 0
0 -365 0 -365 75 0 75 0 0 1830 0 1830 -75 0 -75 0 0 -365 0 -365 -54 0 c-67
0 -106 26 -106 71 0 17 -11 51 -25 77 -14 26 -25 62 -25 80 0 18 -4 40 -9 50
-5 9 -17 36 -26 59 -10 23 -30 54 -46 69 -16 15 -29 35 -29 43 0 9 -9 27 -20
41 -11 14 -20 30 -20 36 0 7 -20 33 -45 60 -42 44 -45 51 -45 101 l0 53 -41 0
c-26 0 -50 7 -66 20 -14 11 -32 20 -39 20 -7 0 -16 9 -19 20 -3 11 -17 23 -31
26 -13 4 -29 14 -34 24 -5 10 -23 21 -39 25 -15 3 -38 17 -50 30 -11 14 -32
25 -45 25 -14 0 -37 11 -52 25 -17 16 -39 25 -59 25 -18 0 -46 11 -65 25 -25
18 -46 25 -81 25 -59 0 -96 13 -131 48 -25 23 -28 33 -28 89 l0 63 380 0 380
0 0 70 0 70 -1820 0 -1820 0 0 -70z m4055 -1570 c6 -10 -52 -108 -94 -157 -18
-22 -21 -22 -61 -8 -33 12 -92 15 -256 15 -203 0 -214 -1 -224 -20 -12 -22
-25 -161 -36 -370 -7 -147 13 -837 26 -910 8 -39 6 -48 -13 -66 -22 -22 -179
-84 -211 -84 -14 0 -17 6 -13 23 3 12 13 58 23 102 17 73 19 126 18 590 -1
474 -10 715 -28 733 -4 4 -131 7 -282 6 -151 0 -274 3 -274 6 0 18 63 98 93
117 32 22 37 23 163 13 397 -30 724 -29 1004 5 138 16 158 17 165 5z m-1956
-66 c292 -73 477 -252 511 -492 40 -281 -72 -636 -267 -842 -113 -120 -265
-178 -494 -187 -156 -7 -260 12 -374 66 -103 49 -172 105 -228 183 -98 138
-132 274 -124 502 6 179 18 233 89 376 44 90 63 117 137 190 66 66 107 96 176
132 207 107 358 126 574 72z m-2295 -76 c10 -57 27 -128 39 -158 55 -150 361
-796 470 -993 43 -77 44 -78 64 -60 27 23 101 211 148 372 82 287 167 637 176
730 9 87 12 98 37 118 33 28 137 70 192 79 56 9 61 -12 21 -93 -35 -72 -155
-407 -327 -913 -135 -400 -155 -455 -177 -480 -18 -22 -85 -42 -141 -44 l-40
-1 -26 70 c-14 39 -81 174 -148 300 -67 127 -166 327 -220 445 -129 280 -249
518 -278 553 -22 26 -23 30 -9 56 13 26 67 66 140 104 55 29 59 26 79 -85z"/>
<path d="M2450 3189 c-150 -26 -293 -138 -368 -290 -52 -105 -72 -179 -79
-294 -10 -181 41 -319 167 -446 119 -121 260 -179 432 -179 116 0 176 14 280
67 107 54 138 79 190 156 132 194 190 427 145 579 -32 106 -159 241 -310 327
-127 72 -314 105 -457 80z m188 -549 c27 -25 30 -85 5 -112 -16 -18 -68 -24
-90 -10 -6 4 -16 19 -21 33 -30 77 49 142 106 89z"/>
<path d="M430 4655 l0 -75 80 0 80 0 0 75 0 75 -80 0 -80 0 0 -75z"/>
<path d="M4140 4725 c0 -2 35 -29 79 -60 43 -30 84 -62 91 -70 7 -8 25 -15 41
-15 l29 0 0 75 0 75 -120 0 c-66 0 -120 -2 -120 -5z"/>
<path d="M4530 4655 l0 -75 80 0 80 0 0 75 0 75 -80 0 -80 0 0 -75z"/>
<path d="M0 4650 l0 -70 140 0 140 0 0 70 0 70 -140 0 -140 0 0 -70z"/>
<path d="M740 4650 l0 -70 30 0 c17 0 38 9 50 23 12 12 34 29 49 37 82 43 110
61 116 70 4 7 -37 10 -119 10 l-126 0 0 -70z"/>
<path d="M4840 4650 l0 -70 140 0 140 0 0 70 0 70 -140 0 -140 0 0 -70z"/>
<path d="M430 4268 c0 -67 2 -119 4 -117 2 2 18 31 34 64 17 33 54 85 81 115
28 30 51 55 51 57 0 2 -38 3 -85 3 l-85 0 0 -122z"/>
<path d="M4530 4381 c0 -5 7 -11 15 -14 14 -6 56 -63 84 -116 8 -14 17 -28 21
-31 4 -3 17 -21 29 -40 l21 -35 0 123 0 122 -85 0 c-47 0 -85 -4 -85 -9z"/>
<path d="M430 858 l0 -128 80 0 c44 0 80 3 80 6 0 4 -13 23 -30 43 -50 61 -54
67 -72 97 -10 16 -27 47 -38 69 l-20 40 0 -127z"/>
<path d="M4666 923 c-11 -25 -46 -77 -78 -114 -32 -37 -58 -70 -58 -73 0 -4
36 -6 80 -6 l80 0 0 120 c0 66 -1 120 -2 120 -2 0 -12 -21 -22 -47z"/>
<path d="M0 475 l0 -75 140 0 140 0 0 75 0 75 -140 0 -140 0 0 -75z"/>
<path d="M430 475 l0 -75 80 0 80 0 0 75 0 75 -80 0 -80 0 0 -75z"/>
<path d="M740 475 l0 -75 127 0 c125 0 126 0 108 20 -10 11 -26 20 -35 20 -9
0 -27 11 -40 25 -13 14 -31 25 -40 25 -9 0 -26 14 -38 30 -16 22 -31 30 -52
30 l-30 0 0 -75z"/>
<path d="M4303 520 c-15 -16 -34 -30 -40 -30 -7 0 -22 -9 -33 -20 -11 -11 -35
-26 -55 -34 -64 -27 -42 -36 90 -36 l125 0 0 75 0 75 -29 0 c-20 0 -39 -10
-58 -30z"/>
<path d="M4530 475 l0 -75 80 0 80 0 0 75 0 75 -80 0 -80 0 0 -75z"/>
<path d="M4850 475 l0 -75 135 0 135 0 0 75 0 75 -135 0 -135 0 0 -75z"/>
<path d="M120 165 l0 -75 80 0 80 0 0 75 0 75 -80 0 -80 0 0 -75z"/>
<path d="M430 120 l0 -120 80 0 80 0 0 120 0 120 -80 0 -80 0 0 -120z"/>
<path d="M4530 120 l0 -120 80 0 80 0 0 120 0 120 -80 0 -80 0 0 -120z"/>
<path d="M4850 165 l0 -75 75 0 75 0 0 75 0 75 -75 0 -75 0 0 -75z"/>
</g>
</svg>
